<?xml version="1.0" encoding="UTF-8" standalone="no"?>
<svg
   data-name="Layer 1"
   width="650.45978"
   height="649.70184"
   viewBox="0 0 650.45975 649.70185"
   version="1.1"
   id="svg42"
   sodipodi:docname="02-description-project.svg"
   inkscape:version="1.2.1 (9c6d41e410, 2022-07-14)"
   xmlns:inkscape="http://www.inkscape.org/namespaces/inkscape"
   xmlns:sodipodi="http://sodipodi.sourceforge.net/DTD/sodipodi-0.dtd"
   xmlns="http://www.w3.org/2000/svg"
   xmlns:svg="http://www.w3.org/2000/svg">
  <defs
     id="defs46" />
  <sodipodi:namedview
     id="namedview44"
     pagecolor="#505050"
     bordercolor="#eeeeee"
     borderopacity="1"
     inkscape:pageshadow="0"
     inkscape:pageopacity="0"
     inkscape:pagecheckerboard="0"
     showgrid="false"
     inkscape:zoom="0.73919335"
     inkscape:cx="-106.87326"
     inkscape:cy="330.08955"
     inkscape:window-width="1920"
     inkscape:window-height="974"
     inkscape:window-x="-11"
     inkscape:window-y="-11"
     inkscape:window-maximized="1"
     inkscape:current-layer="svg42"
     inkscape:showpageshadow="0"
     inkscape:deskcolor="#505050">
    <sodipodi:guide
       position="-29.750892,494.12689"
       orientation="0,680.21069"
       id="guide1147"
       inkscape:locked="false" />
    <sodipodi:guide
       position="650.45979,494.12689"
       orientation="494.12692,0"
       id="guide1149"
       inkscape:locked="false" />
    <sodipodi:guide
       position="650.45979,-2.4437904e-05"
       orientation="0,-680.21069"
       id="guide1151"
       inkscape:locked="false" />
    <sodipodi:guide
       position="-29.750892,-2.4437904e-05"
       orientation="-494.12692,0"
       id="guide1153"
       inkscape:locked="false" />
  </sodipodi:namedview>
  <path
     d="m 332.70377,378.4846 -141.41765,2.76326 a 16.977531,18.863886 0 1 1 -0.597,-37.72187 l 141.418,-2.76259 a 7.9508332,8.8342433 0 0 1 8.08908,8.6776 l 0.31726,20.05617 a 7.9508332,8.8342433 0 0 1 -7.27842,8.95765 q -0.26393,0.0245 -0.53127,0.0299 z"
     fill="#6c63ff"
     id="path2"
     style="fill:#6d6dff;fill-opacity:1;stroke:#000000;stroke-width:1.7;stroke-dasharray:none;stroke-opacity:1" />
  <path
     d="m 305.39309,383.61062 -116.02142,5.88486 a 7.9499913,8.833308 0 0 1 -8.30507,-8.42128 l -1.22779,-29.88656 a 7.9510221,8.8344533 0 0 1 7.57976,-9.22791 l 116.02142,-5.88484 a 7.9500037,8.8333209 0 0 1 8.30508,8.42129 l 1.22778,29.88654 a 7.9608886,8.8454154 0 0 1 -7.27988,9.20685 c -0.0991,0.0105 -0.19959,0.0166 -0.29988,0.0211 z"
     fill="#2f2e41"
     id="path4"
     style="stroke:#000000;stroke-width:1.7;stroke-dasharray:none;stroke-opacity:1" />
  <path
     d="M 109.19176,640.01789 V 472.83356 a 7.9595557,8.8439349 0 0 1 7.95057,-8.83393 h 18.05357 a 7.9595557,8.8439349 0 0 1 7.95055,8.83393 v 167.18433 a 7.9596313,8.8440184 0 0 1 -7.95055,8.83393 h -18.05357 a 7.9596313,8.8440184 0 0 1 -7.95057,-8.83393 z"
     fill="#6c63ff"
     id="path6"
     style="fill:#6d6dff;fill-opacity:1;stroke:#000000;stroke-width:1.7;stroke-dasharray:none;stroke-opacity:1" />
  <path
     d="M 156.56801,640.01789 V 472.83356 a 7.9595557,8.8439349 0 0 1 7.95057,-8.83393 h 18.05361 a 7.9595557,8.8439349 0 0 1 7.95055,8.83393 v 167.18433 a 7.9596313,8.8440184 0 0 1 -7.95055,8.83393 h -18.05361 a 7.9596313,8.8440184 0 0 1 -7.95057,-8.83393 z"
     fill="#6c63ff"
     id="path8"
     style="fill:#6d6dff;fill-opacity:1;stroke:#000000;stroke-width:1.7;stroke-dasharray:none;stroke-opacity:1" />
  <ellipse
     cx="161.28288"
     cy="220.21216"
     fill="#6c63ff"
     id="circle10"
     style="fill:#6d6dff;fill-opacity:1;stroke:#000000;stroke-width:1.7;stroke-dasharray:none;stroke-opacity:1"
     rx="62.381248"
     ry="69.312378" />
  <path
     d="m 195.04946,243.8778 a 14.794558,16.438368 0 0 0 5.40259,-3.52367 9.9485342,11.053906 0 0 0 2.90807,-8.75105 6.6926262,7.4362376 0 0 0 -2.97542,-5.72313 c -2.2308,-1.58995 -5.21443,-1.59467 -8.25223,-0.10725 l 0.115,-27.05856 -2.44615,-0.0132 -0.1353,31.81021 1.88487,-1.3174 c 2.18567,-1.52506 5.30715,-2.59852 7.51276,-1.02614 a 4.2978366,4.7753649 0 0 1 1.86108,3.69513 7.5177734,8.3530661 0 0 1 -2.16227,6.52482 c -2.70125,2.86701 -6.64227,3.76354 -11.1365,4.5648 l 0.3877,2.68349 a 40.318871,44.798661 0 0 0 7.03581,-1.7584 z"
     fill="#2f2e41"
     id="path12"
     style="stroke:#000000;stroke-width:1.7;stroke-dasharray:none;stroke-opacity:1" />
  <rect
     x="179.52298"
     y="226.91359"
     width="13.201961"
     height="2.7133641"
     transform="matrix(0.98940478,-0.14518327,0.11802744,0.99301033,0,0)"
     fill="#2f2e41"
     id="rect14"
     style="stroke:#000000;stroke-width:1.70031;stroke-dasharray:none;stroke-opacity:1" />
  <rect
     x="137.85194"
     y="226.91203"
     width="13.201961"
     height="2.7133641"
     transform="matrix(0.98940478,-0.14518327,0.11802744,0.99301033,0,0)"
     fill="#2f2e41"
     id="rect16"
     style="stroke:#000000;stroke-width:1.70031;stroke-dasharray:none;stroke-opacity:1" />
  <path
     d="M 28.937136,214.73942 118.50193,336.3706 A 16.976802,18.863078 0 1 1 92.223377,360.26033 L 2.6580451,238.62957 A 7.9498531,8.8331539 0 0 1 3.7765081,226.1987 L 17.748906,213.49606 a 7.9512234,8.8346762 0 0 1 11.188198,1.24333 z"
     fill="#6c63ff"
     id="path18"
     style="fill:#6d6dff;fill-opacity:1;stroke:#000000;stroke-width:1.7;stroke-dasharray:none;stroke-opacity:1" />
  <path
     d="m 58.807966,241.88583 73.545864,99.87676 a 7.9498781,8.8331817 0 0 1 -1.11847,12.43086 l -23.86561,21.69599 A 7.9498906,8.8331964 0 0 1 96.181817,374.64629 L 22.635674,274.77018 a 7.9596313,8.8440184 0 0 1 1.118452,-12.43088 l 23.865879,-21.69658 a 7.9508332,8.8342433 0 0 1 11.187939,1.24317 z"
     fill="#2f2e41"
     id="path20"
     style="stroke:#000000;stroke-width:1.7;stroke-dasharray:none;stroke-opacity:1" />
  <path
     id="b687333e-18de-4d8a-8832-7c3edcdf36cf-479"
     data-name="Path 336"
     d="m 568.70703,120.46618 a 11.848162,13.164601 0 0 0 -10.83494,-8.05469 H 341.60261 a 11.729818,13.033106 0 0 0 -11.72352,13.02611 v 304.00059 a 11.729805,13.033092 0 0 0 11.72352,13.02609 H 557.8799 a 11.739106,13.043426 0 0 0 11.72356,-13.02609 V 125.4376 a 11.513689,12.792966 0 0 0 -0.8886,-4.97142 z m -1.71484,308.97201 a 9.1310159,10.145554 0 0 1 -9.12001,10.13337 H 341.60261 a 9.1215894,10.13508 0 0 1 -9.12007,-10.13159 V 125.43933 a 9.132511,10.147216 0 0 1 9.12007,-10.13335 H 557.8799 a 9.1653157,10.183665 0 0 1 8.46525,6.37445 10.111132,11.234571 0 0 1 0.34293,1.14327 9.0429605,10.047716 0 0 1 0.31181,2.61563 z"
     fill="#3f3d56"
     style="stroke:#000000;stroke-width:1.7;stroke-dasharray:none;stroke-opacity:1" />
  <path
     id="eca15e8c-c9ce-4149-9dd0-d1ea6c849243-480"
     data-name="Path 337"
     d="m 523.57454,184.18508 h -65.14348 a 5.2116796,5.7907445 0 1 1 0,-11.58148 h 65.14348 a 5.2116796,5.7907445 0 1 1 0,11.58148 z"
     fill="#3f3d56"
     style="stroke:#000000;stroke-width:1.7;stroke-dasharray:none;stroke-opacity:1" />
  <path
     id="b9f37388-2aff-4ffa-881f-18e269279f19-481"
     data-name="Path 338"
     d="m 523.57454,214.58516 h -65.14348 a 5.2116796,5.7907445 0 1 1 0,-11.58146 h 65.14348 a 5.2116796,5.7907445 0 1 1 0,11.58146 z"
     fill="#3f3d56"
     style="stroke:#000000;stroke-width:1.7;stroke-dasharray:none;stroke-opacity:1" />
  <path
     id="ab29eed0-504d-400c-b1ab-2256c8d671ed-482"
     data-name="Path 339"
     d="M 425.00647,231.89497 H 377.3999 a 5.8694899,6.5216432 0 0 1 -5.86329,-6.51477 v -62.42147 a 5.8694899,6.5216432 0 0 1 5.86329,-6.51477 h 47.60657 a 5.8694899,6.5216432 0 0 1 5.8633,6.51477 v 62.42147 a 5.8694899,6.5216432 0 0 1 -5.8633,6.51477 z"
     fill="#6c63ff"
     style="fill:#6d6dff;fill-opacity:1;stroke:#000000;stroke-width:1.7;stroke-dasharray:none;stroke-opacity:1" />
  <path
     id="fa5fec34-0c55-4409-8f72-9659063fc84a-483"
     data-name="Path 340"
     d="M 523.12246,276.83341 H 375.89859 a 5.2116801,5.790745 0 0 1 0,-11.58148 h 147.22387 a 5.2116801,5.790745 0 1 1 0,11.58148 z"
     fill="#cccccc"
     style="stroke:#000000;stroke-width:1.7;stroke-dasharray:none;stroke-opacity:1" />
  <path
     id="a43251d6-16e2-4557-b881-b3d221f9e0a0-484"
     data-name="Path 341"
     d="M 523.12246,307.23344 H 375.89859 a 5.2116796,5.7907445 0 0 1 0,-11.58147 h 147.22387 a 5.2116796,5.7907445 0 1 1 0,11.58147 z"
     fill="#cccccc"
     style="stroke:#000000;stroke-width:1.7;stroke-dasharray:none;stroke-opacity:1" />
  <path
     id="b1a9b5d8-150e-43cf-a101-e2528d51164c-485"
     data-name="Path 342"
     d="M 523.12246,337.63349 H 375.89859 a 5.2116796,5.7907445 0 0 1 0,-11.58148 h 147.22387 a 5.2116796,5.7907445 0 1 1 0,11.58148 z"
     fill="#cccccc"
     style="stroke:#000000;stroke-width:1.7;stroke-dasharray:none;stroke-opacity:1" />
  <path
     id="fb13d629-1d1d-4a08-ba0c-67ba8ed3b5d8-486"
     data-name="Path 343"
     d="M 523.12246,368.03357 H 375.89859 a 5.2116796,5.7907445 0 0 1 0,-11.58145 h 147.22387 a 5.2116796,5.7907445 0 1 1 0,11.58145 z"
     fill="#cccccc"
     style="stroke:#000000;stroke-width:1.7;stroke-dasharray:none;stroke-opacity:1" />
  <path
     id="f81dc734-d8e2-4a40-b2eb-9530c4619ee2-487"
     data-name="Path 344"
     d="M 523.12246,398.43363 H 375.89859 a 5.2116796,5.7907445 0 0 1 0,-11.58148 h 147.22387 a 5.2116796,5.7907445 0 1 1 0,11.58148 z"
     fill="#cccccc"
     style="stroke:#000000;stroke-width:1.7;stroke-dasharray:none;stroke-opacity:1" />
  <ellipse
     id="bb95e310-3287-4bad-95b8-3adafab6ad5a"
     data-name="Ellipse 44"
     cx="575.00067"
     cy="83.74881"
     fill="#6c63ff"
     style="fill:#6d6dff;fill-opacity:1;stroke:#000000;stroke-width:1.7;stroke-dasharray:none;stroke-opacity:1"
     rx="74.60907"
     ry="82.898811" />
  <ellipse
     cx="573.55621"
     cy="131.05537"
     fill="#ffffff"
     id="circle32"
     style="stroke:#000000;stroke-width:1.7;stroke-dasharray:none;stroke-opacity:1"
     rx="8.7789087"
     ry="9.7543259" />
  <path
     d="m 572.61574,29.271785 a 25.404951,28.227669 0 0 0 -25.14919,27.739682 c -0.002,0.140764 -0.003,1.130365 -0.003,2.424656 a 6.4406401,7.1562538 0 0 0 6.43988,7.155858 v 0 a 6.4445993,7.1606525 0 0 0 6.44318,-7.162224 v -0.0038 c -6.5e-4,-0.880446 -7.8e-4,-1.489831 -7.8e-4,-1.527236 a 12.21422,13.57133 0 1 1 18.80221,11.425147 l 0.003,0.0025 c 0,0 -9.166,6.556562 -11.96048,15.550839 l 0.003,6.36e-4 a 17.939712,19.932977 0 0 0 -0.73926,5.676179 c 0,0.789957 0.0419,7.701955 0.12266,13.312028 a 6.6388705,7.3765093 0 0 0 6.63956,7.25689 v 0 a 6.6406553,7.3784923 0 0 0 6.64038,-7.37879 l -1.1e-4,-0.0452 c -0.028,-5.137789 -0.0432,-11.120299 -0.0432,-11.554488 0,-5.522821 4.79504,-11.025544 8.73385,-14.614005 a 26.490013,29.433293 0 0 0 9.11042,-16.115667 16.557956,18.397695 0 0 0 0.47697,-3.993643 25.334817,28.149746 0 0 0 -25.33481,-28.149762 q -0.0916,0 -0.18303,7.7e-4 z"
     fill="#ffffff"
     id="path34"
     style="stroke:#000000;stroke-width:1.7;stroke-dasharray:none;stroke-opacity:1" />
  <path
     d="m 145.64421,189.54524 c 11.16889,-8.15835 25.20579,-4.48815 37.61939,-3.42238 11.21675,0.96299 24.51147,0.0142 32.40057,-10.16818 8.20754,-10.5934 7.5217,-26.32181 0.72647,-37.5266 -6.6885,-11.02879 -17.79125,-17.99279 -29.53694,-19.82899 a 47.386239,52.65128 0 0 0 -36.82555,11.29954 l 3.99202,1.83728 C 151.69375,107.02488 135.34193,84.685932 113.403,78.626501 91.205437,72.49564 66.381708,82.959116 54.538977,104.95008 c -11.675085,21.6797 -10.291997,51.93142 6.512991,69.94764 8.070423,8.65213 19.048519,13.05996 30.189539,10.7079 10.274913,-2.1692 19.404423,-10.49174 21.327263,-22.24437 1.78248,-10.8948 -2.11137,-23.26965 -11.64899,-28.02772 a 19.016468,21.12937 0 0 0 -16.621143,0.29511 16.156292,17.951404 0 0 0 -8.19267,14.3598 14.281916,15.868764 0 0 0 1.51981,8.2895 c 1.32399,3.00295 5.35887,0.37213 4.03838,-2.62282 a 10.844705,12.04965 0 0 1 2.24051,-13.22544 c 3.46689,-4.02403 8.93964,-4.69242 13.54646,-3.04715 8.429553,3.0105 12.151423,13.75517 10.562963,22.87023 -1.77926,10.2098 -9.623713,16.77026 -18.555683,18.45005 -9.71341,1.82678 -19.18582,-2.73047 -25.928546,-10.39523 -14.12108,-16.05197 -15.343069,-41.90569 -5.817381,-61.06379 9.663507,-19.43525 30.276777,-29.87132 49.91134,-26.611258 19.41544,3.223659 35.40513,20.191388 40.38738,41.113338 a 47.385926,52.65093 0 0 1 1.33202,7.98999 2.3743155,2.6381235 0 0 0 3.99202,1.83728 c 16.59032,-15.30948 44.18419,-13.66746 57.7876,5.59218 6.67128,9.44519 8.63736,24.11237 0.84685,33.6003 -7.41794,9.0341 -19.7367,9.04322 -29.86822,8.05378 -12.96056,-1.2657 -27.2083,-4.24148 -38.81783,4.23868 -2.50469,1.82956 -0.16428,6.33137 2.36057,4.48712 z"
     fill="#2f2e41"
     id="path36"
     style="stroke:#000000;stroke-width:1.7;stroke-dasharray:none;stroke-opacity:1" />
  <path
     d="m 195.94646,531.13436 h -93.53881 a 7.0230898,7.8034185 0 0 1 -7.015413,-7.7949 v -34.64394 a 7.0230898,7.8034185 0 0 1 7.015413,-7.7949 h 93.53881 a 7.0230898,7.8034185 0 0 1 7.01542,7.7949 v 34.64394 a 7.0230898,7.8034185 0 0 1 -7.01542,7.7949 z"
     fill="#2f2e41"
     id="path38"
     style="stroke:#000000;stroke-width:1.7;stroke-dasharray:none;stroke-opacity:1" />
  <path
     d="m 199.14274,360.33109 c -2.92869,-16.64111 -14.30286,-29.8195 -29.06569,-35.23812 5.33113,-1.906 8.72065,-4.72845 8.72065,-7.88495 0,-5.74003 -11.16769,-10.39321 -24.94371,-10.39321 -13.776,0 -24.94366,4.65314 -24.94366,10.39321 0,3.20261 3.48164,6.06438 8.94804,7.97081 -22.63308,7.49758 -39.060903,29.38348 -39.060903,55.15581 0,0 -6.96698,49.62478 -12.43712,89.29318 -3.4996,25.37821 15.621973,48.0617 40.507143,48.0617 h 87.51879 c 5.73295,0 10.39686,-4.80413 10.39686,-10.70949 0,0 -16.12684,-92.59137 -25.6404,-146.64894 z"
     fill="#2f2e41"
     id="path40"
     style="stroke:#000000;stroke-width:1.7;stroke-dasharray:none;stroke-opacity:1" />
</svg>
