<?xml version="1.0" encoding="UTF-8" standalone="no"?>
<svg
   data-name="Layer 1"
   width="651.17902"
   height="650.96918"
   viewBox="0 0 651.17901 650.96915"
   version="1.1"
   id="svg42"
   sodipodi:docname="03-send-project.svg"
   inkscape:version="1.2.1 (9c6d41e410, 2022-07-14)"
   xmlns:inkscape="http://www.inkscape.org/namespaces/inkscape"
   xmlns:sodipodi="http://sodipodi.sourceforge.net/DTD/sodipodi-0.dtd"
   xmlns="http://www.w3.org/2000/svg"
   xmlns:svg="http://www.w3.org/2000/svg">
  <defs
     id="defs46" />
  <sodipodi:namedview
     id="namedview44"
     pagecolor="#505050"
     bordercolor="#eeeeee"
     borderopacity="1"
     inkscape:pageshadow="0"
     inkscape:pageopacity="0"
     inkscape:pagecheckerboard="0"
     showgrid="false"
     inkscape:snap-global="true"
     inkscape:snap-text-baseline="false"
     inkscape:object-paths="true"
     fit-margin-top="0"
     fit-margin-left="0"
     fit-margin-right="0"
     fit-margin-bottom="0"
     inkscape:zoom="0.5305778"
     inkscape:cx="-395.79492"
     inkscape:cy="201.66694"
     inkscape:window-width="1920"
     inkscape:window-height="974"
     inkscape:window-x="-11"
     inkscape:window-y="-11"
     inkscape:window-maximized="1"
     inkscape:current-layer="svg42"
     inkscape:showpageshadow="0"
     inkscape:deskcolor="#505050" />
  <path
     d="M 193.6306,110.72009 11.181712,69.308379 8.8106182,68.771459 a 6.5643045,6.9069742 0 0 0 -7.2772319,9.81159 L 73.973057,233.37012 a 6.5853796,6.9291495 0 0 0 4.891449,3.7685 6.5197003,6.8600417 0 0 0 5.746597,-2.07329 L 134.926,179.24311 a 3.8191868,4.018556 0 0 1 2.80663,-1.28974 3.9507815,4.1570203 0 0 1 3.51643,2.15125 l 10.30594,20.05751 a 6.4120413,6.7467628 0 0 0 7.17965,3.46191 l 0.0513,-0.0124 a 6.4209518,6.7561383 0 0 0 5.08782,-6.41689 l 2.0645,-46.29989 a 4.0125896,4.2220548 0 0 1 0.40287,-1.6635 4.270136,4.493046 0 0 1 1.03449,-1.34395 l 29.02703,-25.07145 a 6.568766,6.9116689 0 0 0 -2.77207,-12.09633 z m 1.11441,9.96499 -29.02697,25.07157 a 6.4740464,6.8120044 0 0 0 -1.02176,1.08619 L 10.851943,73.429489 a 2.2883153,2.4077701 0 0 0 -0.422639,-0.15602 2.6278659,2.7650459 0 0 0 -2.1904149,4.92218 L 134.73337,175.96486 a 6.2930577,6.6215679 0 0 0 -1.71319,1.37454 l -50.314295,55.82192 a 3.9374619,4.1430053 0 0 1 -6.383319,-1.01699 L 3.8829248,77.357269 a 3.9470415,4.153085 0 0 1 4.3675778,-5.88168 l 2.4274054,0.55194 182.391952,41.396831 a 3.945598,4.1515662 0 0 1 1.67515,7.26072 z"
     fill="#6c63ff"
     id="path2"
     style="fill:#6d6dff;fill-opacity:1;stroke:#000000;stroke-width:1.7;stroke-dasharray:none;stroke-opacity:1" />
  <path
     d="m 171.34096,55.839259 c 1.40997,-24.33833 9.53721,-54.3907608 22.19543,-48.9284808 6.27779,2.70903 10.65876,14.4368708 13.64041,26.7026508 4.12429,16.966 6.0954,36.47233 7.03647,55.33502 1.08548,21.756871 0.78696,43.582781 0.42708,65.274081 -0.35532,21.41389 -0.60241,42.82223 -0.48596,64.29985 a 827.17534,276.14821 88.434661 0 0 14.1576,249.88192 q 3.30192,30.20045 7.40148,59.98227 a 414.86188,138.49949 88.434661 0 0 8.67308,54.96969 c 4.56259,23.51657 13.19945,61.67825 26.81782,57.60003 7.22086,-2.16247 12.62206,-15.39831 16.25759,-28.62661 4.39584,-15.99473 7.03942,-34.33789 9.60173,-52.30192 11.91862,-83.55832 23.65947,-167.26612 35.48795,-250.89893 2.76064,-19.51898 5.42678,-39.16009 8.78544,-58.1492 3.14455,-17.7785 6.88989,-35.51535 12.38714,-50.02288 4.8014,-12.67116 11.42305,-24.15124 19.22874,-24.2887 6.47344,-0.11405 12.2384,8.33451 16.68081,18.85853 10.99858,26.05543 16.31604,63.60428 19.55843,97.64641 4.02835,42.29374 5.38465,85.38394 9.32179,127.71165 3.17908,34.17699 8.37548,70.57348 18.70758,97.84639 a 88.504572,29.546791 88.434661 0 0 14.81512,23.16099 82.834359,27.65382 88.434661 0 0 16.51292,-6.08258 c 5.7825,-7.96692 10.19687,-20.35062 13.72235,-33.29668 a 193.92404,64.740529 88.434661 0 0 9.3584,-49.7279 c 4.79231,-38.09961 6.65117,-77.94865 10.02088,-116.87097 1.6526,-19.08838 3.51681,-38.38305 6.83052,-56.22786 2.80743,-15.11837 6.71409,-31.64459 13.02741,-40.37633 13.0259,-18.01582 22.41045,22.23342 26.20883,45.14236 a 301.1432,100.53511 88.434661 0 1 6.15758,48.06774 c 0.36042,3.46872 2.63386,1.83321 2.27516,-1.61928 a 289.61496,96.686429 88.434661 0 0 -6.56311,-50.47025 c -2.37486,-13.80907 -5.3707,-28.02042 -10.08711,-38.67498 A 55.194735,18.426476 88.434661 0 0 524.7195,230.26203 c -6.41862,3.33949 -11.03455,16.28484 -14.29181,28.36996 -4.3074,15.98126 -6.87793,34.04467 -8.86046,52.31713 -2.088,19.24428 -3.56864,38.85289 -5.00936,58.4523 -2.87884,39.16385 -5.25432,80.04208 -12.89529,115.73663 -5.34515,24.96947 -15.77023,59.10354 -30.26694,51.89602 -6.43516,-3.19949 -11.72639,-13.87697 -15.73846,-25.51417 a 154.50197,51.579685 88.434661 0 1 -11.14146,-46.8433 c -12.91477,-77.08521 -8.17046,-163.20205 -24.76159,-238.03005 -5.64108,-25.44201 -15.41528,-56.14765 -29.23619,-55.46748 -7.17965,0.35344 -13.48641,9.42151 -18.34901,20.43438 -5.82407,13.1903 -9.90534,30.03733 -13.22086,47.12169 a 537.28692,179.37049 88.434661 0 0 -8.88561,55.80461 q -4.45869,31.46357 -8.9022,62.93978 l -18.01093,127.34533 -8.94871,63.27222 c -2.73121,19.31093 -5.31083,39.10283 -9.65918,56.78666 -3.56041,14.47929 -9.60892,31.71048 -17.82842,30.81232 -6.52762,-0.71322 -11.623,-13.32613 -15.13045,-24.9291 -4.54179,-15.02465 -7.71119,-32.03277 -10.43457,-48.98431 -3.14117,-19.55255 -5.86411,-39.45825 -8.37787,-59.41703 A 808.56341,269.9347 88.434661 0 1 222.57955,377.34444 826.2255,275.8311 88.434661 0 1 216.93719,249.88253 q -0.59306,-32.3019 -0.32732,-64.56133 c 0.18513,-22.16858 0.85331,-44.27491 0.75547,-66.48155 -0.0885,-20.086311 -0.85938,-40.320101 -3.25194,-59.945561 -1.99773,-16.38678 -5.17802,-33.62679 -10.70083,-45.79538 A 61.222555,20.438833 88.434661 0 0 189.21648,1.0408782 74.25202,24.788653 88.434661 0 0 176.04211,17.176049 a 68.88046,22.995384 88.434661 0 0 -7.06941,37.3577 c -0.20141,3.47683 2.1659,4.79823 2.36816,1.30593 z"
     fill="#e6e6e6"
     id="path4"
     style="stroke:#000000;stroke-width:1.7;stroke-dasharray:none;stroke-opacity:1" />
  <rect
     x="225.10973"
     y="647.02527"
     width="425.21927"
     height="3.0939331"
     fill="#3f3d56"
     id="rect6"
     style="stroke:#000000;stroke-width:1.7;stroke-dasharray:none;stroke-opacity:1" />
  <ellipse
     cx="535.87842"
     cy="538.41193"
     fill="#e6e6e6"
     id="circle8"
     style="stroke:#000000;stroke-width:1.7;stroke-dasharray:none;stroke-opacity:1"
     rx="27.778313"
     ry="29.228397" />
  <ellipse
     cx="147.59561"
     cy="311.22223"
     fill="#e6e6e6"
     id="circle10"
     inkscape:transform-center-x="-32.152764"
     inkscape:transform-center-y="32.530005"
     style="stroke:#000000;stroke-width:1.7;stroke-dasharray:none;stroke-opacity:1"
     rx="27.778322"
     ry="29.228411" />
  <path
     d="m 626.42156,340.2 -80.19883,4.09518 a 13.383498,14.272346 5.0315363 0 0 -12.87602,14.91578 l 2.10179,60.99963 a 13.383436,14.272278 5.0315188 0 0 13.85684,13.55079 l 80.19883,-4.09518 a 13.383461,14.272304 5.031523 0 0 12.87608,-14.91581 l -2.10179,-60.99964 A 13.383511,14.272357 5.0315118 0 0 626.42156,340.2 Z m 0.28023,8.1333 a 5.7029973,6.0817536 5.0315235 0 1 1.42549,0.12469 l -40.2939,37.37866 -42.48344,-33.22372 a 5.7325957,6.1133177 5.0315235 0 1 1.15305,-0.18443 z m 2.52216,73.19962 -80.19884,4.09516 a 5.7358995,6.1168411 5.0315207 0 1 -5.93866,-5.80751 l -2.08288,-60.45184 44.71627,34.97011 a 3.8196195,4.073294 5.0315227 0 0 4.77479,-0.23413 l 42.17482,-39.12387 2.07284,60.15951 a 5.735912,6.1168545 5.0315201 0 1 -5.51834,6.39257 z"
     fill="#e6e6e6"
     id="path12"
     style="stroke:#000000;stroke-width:1.7;stroke-dasharray:none;stroke-opacity:1" />
  <ellipse
     cx="416.26489"
     cy="187.65973"
     fill="#6c63ff"
     id="circle14"
     style="fill:#6d6dff;fill-opacity:1;stroke:#000000;stroke-width:1.7;stroke-dasharray:none;stroke-opacity:1"
     rx="70.23175"
     ry="73.897987" />
  <path
     d="m 405.19857,647.93509 h -19.36888 a 8.5396561,8.9854432 0 0 1 -8.52977,-8.97505 V 469.10569 a 8.5396561,8.9854432 0 0 1 8.52977,-8.97504 h 19.36888 a 8.5396561,8.9854432 0 0 1 8.52977,8.97504 v 169.85435 a 8.5396561,8.9854432 0 0 1 -8.52977,8.97505 z"
     fill="#2f2e41"
     id="path16"
     style="stroke:#000000;stroke-width:1.7;stroke-dasharray:none;stroke-opacity:1" />
  <path
     d="m 443.50692,647.93509 h -19.36885 a 8.5396561,8.9854432 0 0 1 -8.52977,-8.97505 V 469.10569 a 8.5396561,8.9854432 0 0 1 8.52977,-8.97504 h 19.36885 a 8.5396561,8.9854432 0 0 1 8.52977,8.97504 v 169.85435 a 8.5396561,8.9854432 0 0 1 -8.52977,8.97505 z"
     fill="#2f2e41"
     id="path18"
     style="stroke:#000000;stroke-width:1.7;stroke-dasharray:none;stroke-opacity:1" />
  <path
     d="m 500.22969,481.14246 a 8.5877902,9.0360896 0 0 1 -2.30504,-1.11964 8.4776765,8.9202289 0 0 1 -3.6726,-5.67937 l -32.84174,-166.3028 a 8.5290389,8.9742727 0 0 1 6.61553,-10.61273 l 18.96313,-4.14646 a 8.5279896,8.973168 0 0 1 10.08745,6.96125 l 32.84054,166.30254 a 8.5269532,8.9720772 0 0 1 -6.61551,10.61271 l -18.96321,4.14641 a 8.4768236,8.9193317 0 0 1 -4.10855,-0.16191 z"
     fill="#6c63ff"
     id="path20"
     style="fill:#6d6dff;fill-opacity:1;stroke:#000000;stroke-width:1.7;stroke-dasharray:none;stroke-opacity:1" />
  <path
     d="m 365.80404,313.75996 a 8.4778742,8.9204363 0 0 1 -2.99092,-0.60539 l -0.002,-10e-6 -150.47054,-61.51768 a 8.5214678,8.9663051 0 0 1 -4.85083,-11.61524 l 7.0017,-18.99685 a 8.5543403,9.0008941 0 0 1 11.05111,-5.10664 l 150.46749,61.5042 a 8.5532115,8.9997063 0 0 1 4.86495,11.6126 l -7.01455,18.99942 a 8.5682367,9.0155161 0 0 1 -8.0571,5.72559 z"
     fill="#6c63ff"
     id="path22"
     style="fill:#6d6dff;fill-opacity:1;stroke:#000000;stroke-width:1.7;stroke-dasharray:none;stroke-opacity:1" />
  <rect
     x="363.59109"
     y="274.39627"
     width="103.75144"
     height="213.29645"
     rx="7.8736377"
     fill="#2f2e41"
     id="rect24"
     style="stroke:#000000;stroke-width:1.7;stroke-dasharray:none;stroke-opacity:1" />
  <path
     d="m 468.14017,115.29209 c 4.1264,9.52822 8.07646,21.04402 3.63472,31.23673 a 16.697191,17.568818 0 0 1 -8.55077,9.26182 c -4.57795,1.9214 -9.56784,0.82488 -13.80991,-1.49801 -8.93154,-4.89071 -14.68848,-13.97855 -22.66309,-20.20457 a 26.946765,28.353439 0 0 0 -12.47185,-5.65537 c -5.24003,-0.71867 -10.44198,0.58175 -15.56717,1.58574 -5.45093,1.0678 -11.08452,1.63133 -16.1295,-1.27695 a 23.678981,24.915072 0 0 1 -9.89559,-11.89574 c -1.03892,-2.42659 -4.43263,-0.32277 -3.39933,2.09073 4.28982,10.01983 13.16135,16.84766 23.82081,16.05797 5.64016,-0.41785 11.08785,-2.33413 16.73761,-2.60861 a 22.365659,23.533191 0 0 1 14.3079,4.81283 c 8.75569,6.56697 14.69805,16.65216 24.74249,21.42184 4.73922,2.25041 10.16632,3.18842 15.16306,1.25028 a 19.877773,20.915433 0 0 0 10.15313,-9.30324 c 6.59202,-11.94252 2.35816,-25.7483 -2.67324,-37.36616 -1.04913,-2.42251 -4.44317,-0.31958 -3.39933,2.09071 z"
     fill="#2f2e41"
     id="path26"
     style="stroke:#000000;stroke-width:1.7;stroke-dasharray:none;stroke-opacity:1" />
  <path
     d="m 424.02915,212.33388 c -4.33794,-0.12814 -9.73825,-0.28721 -13.89678,-3.48429 a 10.673937,11.231138 0 0 1 -4.19952,-8.38445 7.1784086,7.5531361 0 0 1 2.44129,-6.20405 c 2.17089,-1.93161 5.34264,-2.38534 8.76429,-1.32684 l -3.54341,-27.2373 2.6015,-0.37486 4.16364,32.01944 -2.17089,-1.04703 c -2.51562,-1.21492 -5.97315,-1.83452 -8.12098,0.0756 a 4.612285,4.8530558 0 0 0 -1.51217,3.99734 8.0668699,8.4879768 0 0 0 3.12433,6.25192 c 3.23712,2.48783 7.54044,2.8101 12.42303,2.95303 z"
     fill="#2f2e41"
     id="path28"
     style="stroke:#000000;stroke-width:1.7;stroke-dasharray:none;stroke-opacity:1" />
  <rect
     x="386.60123"
     y="168.04587"
     width="14.135121"
     height="2.7615526"
     fill="#2f2e41"
     id="rect30"
     style="stroke:#000000;stroke-width:1.7;stroke-dasharray:none;stroke-opacity:1" />
  <rect
     x="431.21851"
     y="168.04587"
     width="14.135121"
     height="2.7615526"
     fill="#2f2e41"
     id="rect32"
     style="stroke:#000000;stroke-width:1.7;stroke-dasharray:none;stroke-opacity:1" />
  <path
     d="m 365.80406,313.75993 -64.19931,-20.49341 a 8.1447861,8.5265227 0 0 1 -5.51895,-10.25326 l 7.49469,-30.91486 a 8.1447861,8.5265227 0 0 1 11.39107,-5.60334 l 63.67616,31.68585 a 8.1595689,8.5419983 0 0 1 4.74455,10.98552 l -7.08133,19.62535 a 8.1593244,8.5417424 0 0 1 -10.50688,4.96815 z"
     fill="#2f2e41"
     id="path34"
     style="stroke:#000000;stroke-width:1.7;stroke-dasharray:none;stroke-opacity:1" />
  <path
     d="m 456.52622,285.15956 10.96006,67.28912 a 7.8736379,8.2846572 0 0 0 8.72113,6.82331 l 29.23268,-3.78096 a 7.8736379,8.2846572 0 0 0 6.51949,-10.80907 l -21.27691,-68.13042 a 7.8879284,8.2996942 0 0 0 -9.48618,-6.13146 l -18.84022,4.7449 a 7.8876923,8.2994456 0 0 0 -5.83005,9.99458 z"
     fill="#2f2e41"
     id="path36"
     style="stroke:#000000;stroke-width:1.7;stroke-dasharray:none;stroke-opacity:1" />
  <path
     d="M 193.6306,110.72009 11.181712,69.308379 8.8106182,68.771459 a 6.5643045,6.9069742 0 0 0 -7.2772319,9.81159 L 73.973057,233.37012 a 6.5853796,6.9291495 0 0 0 4.891449,3.7685 6.5197003,6.8600417 0 0 0 5.746597,-2.07329 L 134.926,179.24311 a 3.8191868,4.018556 0 0 1 2.80663,-1.28974 3.9507815,4.1570203 0 0 1 3.51643,2.15125 l 10.30594,20.05751 a 6.4120413,6.7467628 0 0 0 7.17965,3.46191 l 0.0513,-0.0124 a 6.4209518,6.7561383 0 0 0 5.08782,-6.41689 l 2.0645,-46.29989 a 4.0125896,4.2220548 0 0 1 0.40287,-1.6635 4.270136,4.493046 0 0 1 1.03449,-1.34395 l 29.02703,-25.07145 a 6.568766,6.9116689 0 0 0 -2.77207,-12.09633 z m 1.11441,9.96499 -29.02697,25.07157 a 6.4740464,6.8120044 0 0 0 -1.02176,1.08619 6.0979355,6.4162602 0 0 0 -0.69868,1.15268 6.2943043,6.6228795 0 0 0 -0.476,1.31283 l 0.002,0.0138 a 6.2080877,6.5321625 0 0 0 -0.20669,1.44814 l -2.0639,46.29974 a 3.8114706,4.010437 0 0 1 -3.04805,3.84905 l -0.0256,0.006 a 3.819856,4.0192602 0 0 1 -4.31829,-2.06346 l -10.30825,-20.07139 a 6.5474418,6.8892313 0 0 0 -5.37997,-3.59815 l -0.0131,0.003 c -0.14987,-0.006 -0.2992,-0.0151 -0.44559,-0.01 a 6.3852055,6.7185259 0 0 0 -2.9816,0.77908 6.2930577,6.6215679 0 0 0 -1.71319,1.37455 l -50.314129,55.82192 a 3.9374619,4.1430053 0 0 1 -6.383327,-1.01699 L 3.8829248,77.357269 a 3.9470415,4.153085 0 0 1 4.3675778,-5.88168 l 2.4274054,0.55194 182.391952,41.396831 a 3.945598,4.1515662 0 0 1 1.67515,7.26072 z"
     fill="#3f3d56"
     id="path38"
     style="stroke:#000000;stroke-width:1.7;stroke-dasharray:none;stroke-opacity:1" />
  <path
     d="m 165.27837,147.11747 -1.08415,2.51522 -0.66977,-0.31086 -0.002,-0.0138 L 9.7997207,75.965459 138.16117,175.19478 l 0.0131,-0.003 0.33988,0.27442 -1.54772,2.22695 -2.2319,-1.72852 L 8.2400802,78.195419 a 2.6278659,2.7650459 0 0 1 2.1904188,-4.92217 2.2883153,2.4077701 0 0 1 0.422627,0.15603 L 164.69665,146.84277 Z"
     fill="#3f3d56"
     id="path40"
     style="stroke:#000000;stroke-width:1.7;stroke-dasharray:none;stroke-opacity:1" />
</svg>
