<?xml version="1.0" encoding="UTF-8" standalone="no"?>
<svg
   data-name="Layer 1"
   width="543.21936"
   height="533.6012"
   viewBox="0 0 543.21934 533.6012"
   version="1.1"
   id="svg56"
   sodipodi:docname="form-logo.svg"
   inkscape:version="1.1.1 (3bf5ae0d25, 2021-09-20)"
   xmlns:inkscape="http://www.inkscape.org/namespaces/inkscape"
   xmlns:sodipodi="http://sodipodi.sourceforge.net/DTD/sodipodi-0.dtd"
   xmlns="http://www.w3.org/2000/svg"
   xmlns:svg="http://www.w3.org/2000/svg">
  <defs
     id="defs60" />
  <sodipodi:namedview
     id="namedview58"
     pagecolor="#505050"
     bordercolor="#eeeeee"
     borderopacity="1"
     inkscape:pageshadow="0"
     inkscape:pageopacity="0"
     inkscape:pagecheckerboard="0"
     showgrid="false"
     inkscape:zoom="1.0827"
     inkscape:cx="272.00517"
     inkscape:cy="226.28614"
     inkscape:window-width="1920"
     inkscape:window-height="974"
     inkscape:window-x="-11"
     inkscape:window-y="-11"
     inkscape:window-maximized="1"
     inkscape:current-layer="svg56" />
  <path
     d="M 467.90394,186.42407 H 54.568176 A 13.907438,13.660198 0 0 1 40.676806,172.77965 V 13.644383 A 13.907438,13.660198 0 0 1 54.568176,-3.1924275e-5 H 467.90394 A 13.907438,13.660198 0 0 1 481.79531,13.644383 V 172.77971 a 13.907438,13.660198 0 0 1 -13.89137,13.64436 z"
     fill="#f2f2f2"
     id="path2"
     style="stroke-width:0.999998" />
  <path
     d="M 372.36317,180.04041 H 116.9136 A 71.880391,69.511252 0 0 1 45.114356,110.60763 V 80.343099 A 71.880828,69.511676 0 0 1 116.9136,10.909822 h 286.74561 a 71.880828,69.511676 0 0 1 71.79925,69.433277 103.21216,99.81035 0 0 1 -103.09529,99.697311 z"
     fill="#ffffff"
     id="path4"
     style="stroke-width:1" />
  <path
     d="M 655.673,201.175 H 451.26661 a 4.40803,4.40803 0 1 1 0,-8.81606 H 655.673 a 4.40803,4.40803 0 0 1 0,8.81606 z"
     fill="#e6e6e6"
     id="path6"
     transform="translate(-328.39033,-133.1994)" />
  <path
     d="M 759.14708,248.20578 H 451.26661 a 4.40803,4.40803 0 1 1 0,-8.81606 h 307.88047 a 4.40803,4.40803 0 0 1 0,8.81606 z"
     transform="translate(-328.39033,-133.1994)"
     fill="#e6e6e6"
     id="path8" />
  <path
     d="M 759.14708,295.23659 H 451.26661 a 4.40803,4.40803 0 1 1 0,-8.81606 h 307.88047 a 4.40803,4.40803 0 0 1 0,8.81606 z"
     transform="translate(-328.39033,-133.1994)"
     fill="#e6e6e6"
     id="path10" />
  <path
     d="M 759.14708,295.23659 H 451.26661 a 4.40803,4.40803 0 1 1 0,-8.81606 h 307.88047 a 4.40803,4.40803 0 0 1 0,8.81606 z"
     transform="translate(-328.39033,-133.1994)"
     fill="#e6e6e6"
     id="path12" />
  <path
     d="m 257.0522,86.68045 a 9.08847,7.8357082 0 0 1 -11.00741,7.368988 l -16.81052,23.776412 -7.15453,-13.08942 17.06037,-20.571765 a 9.13775,7.8781954 0 0 1 17.912,2.515785 z"
     fill="#ffb6b6"
     id="path14"
     style="stroke-width:0.999997" />
  <path
     d="m 130.90011,154.82226 57.9323,-27.09219 18.27309,-14.78076 c 0,0 7.94382,-1.83372 5.02,-4.06062 -2.92382,-2.22689 5.40826,-4.37459 5.40826,-4.37459 l 9.80947,-7.934705 13.93898,8.503225 -4.0341,5.39142 c 0,0 0.27766,8.9252 -5.39346,7.20813 -5.67112,-1.71707 -4.25394,5.68521 -4.25394,5.68521 l -33.84976,45.23878 z"
     fill="#3f3d56"
     id="path16"
     style="stroke-width:0.999997" />
  <ellipse
     cx="-301.90988"
     cy="80.511139"
     fill="#6c63ff"
     id="circle18"
     style="stroke-width:0.999997;fill:#6d6dff;fill-opacity:1"
     rx="56.585991"
     ry="48.786137"
     transform="scale(-1,1)" />
  <polygon
     points="432.044,566.219 432.044,611.601 420.278,611.601 414.679,566.219 "
     fill="#ffb6b6"
     id="polygon20"
     transform="matrix(-1,0,0,0.8621592,562.76478,-17.127229)"
     style="stroke-width:1.07697" />
  <path
     d="m 124.51062,527.74584 h 8.43765 l 1.50609,-6.8681 3.8573,6.86809 h 22.37867 a 5.03052,4.3371092 0 0 0 2.85851,-7.90615 L 145.6779,509.19864 v -6.94341 l -18.79712,0.96729 z"
     fill="#2f2e41"
     id="path22"
     style="stroke-width:0.999997" />
  <polygon
     points="337.942,566.219 337.942,611.601 326.176,611.601 320.577,566.219 "
     fill="#ffb6b6"
     id="polygon24"
     transform="matrix(-1,0,0,0.8621592,562.76478,-17.127229)"
     style="stroke-width:1.07697" />
  <path
     d="m 218.61277,527.74584 h 8.43765 l 1.50608,-6.8681 3.85731,6.8681 h 22.37867 a 5.03052,4.3371092 0 0 0 2.85851,-7.90615 l -17.871,-10.64104 v -6.94342 l -18.79711,0.96729 z"
     fill="#2f2e41"
     id="path26"
     style="stroke-width:0.999997" />
  <rect
     x="-202.58983"
     y="214.26004"
     width="59.38485"
     height="58.288319"
     fill="#ffb6b6"
     id="rect28"
     style="stroke-width:0.999997"
     transform="scale(-1,1)" />
  <path
     d="m 201.21941,243.01035 10.04975,10.23988 17.35865,31.50716 43.7393,89.7244 9.25023,18.97543 -7.47021,33.54432 c 0,0 -1.20911,23.63259 -1.20911,27.50088 0,7.8768 -7.64134,12.24131 -7.64134,12.24131 l -5.606,25.17349 -54.36,-1.96918 c 0,0 1.89668,-27.74829 13.28212,-34.74766 11.38544,-6.99937 16.6191,-43.47763 16.6191,-43.47763 l 6.1865,-16.18466 -60.29846,-61.6251 -0.38919,21.54117 -0.18838,10.42645 c 0,0 8.83024,67.81415 -1.463,80.97486 -10.29324,13.1607 -0.20981,11.61235 -0.20981,11.61235 l -0.49048,27.14796 -64.40973,0.39385 14.20976,-78.15971 c 0,0 7.2153,-4.91182 3.35489,-9.84917 -3.86041,-4.93736 3.74157,-10.98437 3.74157,-10.98437 l -3.40954,-61.01714 c 0,0 3.7751,-10.53937 -0.66547,-11.90929 -4.44057,-1.36992 -0.583,-10.43326 -0.583,-10.43326 l -0.65994,-11.81017 13.24739,-36.62712 z"
     fill="#2f2e41"
     id="path30"
     style="stroke-width:0.999997" />
  <path
     d="m 142.29137,214.26004 -6.39529,-16.54128 -4.56807,-5.51377 -1.82722,-15.75359 c 0,-42.53472 11.00445,-35.4518 11.00445,-35.4518 l 6.3542,-14.95972 29.23561,-0.78768 18.72906,15.35977 15.53142,4.72607 6.082,27.24606 -11.10688,29.07306 -2.74084,15.75359 c 5.22846,8.32166 4.78621,4.38556 0.45681,10.63369 l -51.61914,12.20903 c -18.27226,5.51377 -18.27226,-8.66447 -14.60827,-12.20903 3.6639,-3.54456 5.47216,-13.7844 5.47216,-13.7844 z"
     fill="#3f3d56"
     id="path32"
     style="stroke-width:0.999997" />
  <ellipse
     cx="-165.25398"
     cy="96.59803"
     fill="#ffb6b6"
     id="circle34"
     style="stroke-width:0.999997"
     rx="27.102449"
     ry="23.366627"
     transform="scale(-1,1)" />
  <path
     d="M 191.64923,133.43568"
     fill="#2f2e41"
     id="path36"
     style="stroke-width:0.999997" />
  <path
     d="m 129.07142,127.78851 a 3.32909,2.8702056 0 0 0 1.8546,4.19834 c 3.63616,1.03977 5.87453,4.07231 8.48745,6.49837 2.60383,2.41819 6.79728,4.42675 10.12284,2.78046 3.31642,-1.63834 3.54483,-5.82091 6.32219,-8.08943 2.70432,-2.2055 7.19928,-1.93771 10.37869,-0.25995 l 0.0951,0.0504 a 3.35133,2.88938 0 0 0 5.12711,-2.93961 q -1.671,-7.66182 -3.34014,-15.32197 a 59.76117,51.523644 0 0 0 12.50736,16.30498 13.757,11.860725 0 0 0 5.42687,3.2925 c 1.90027,0.51988 3.74579,-1.17364 5.59131,-0.86647 -4.58636,-3.45793 -20.00815,-25.62325 -17.249,-40.439509 q 4.865,0.472644 9.72994,0.945234 a 8.94324,7.7104968 0 0 1 2.1744,-3.536643 10.51041,9.0616468 0 0 0 0.55734,3.804457 c 1.35213,0.133938 2.71341,0.259945 4.06554,0.393831 1.882,0.181196 3.92858,0.338705 5.54563,-0.51196 2.69517,-1.417805 2.77742,-4.773337 2.01,-7.419978 -2.2475,-7.695636 -9.063,-14.130983 -17.40431,-17.502223 -8.3413,-3.363413 -10.80806,4.127431 -19.597,1.73294 -17.35864,-4.726082 -30.66085,3.355524 -35.34769,18.352931 -3.93774,12.57922 -1.07812,25.9304 2.9418,38.53327 z"
     fill="#2f2e41"
     id="path38"
     style="stroke-width:0.999997" />
  <path
     d="m 54.039299,528.2541 h 33.18652 l 0.14258,-0.22312 c 0.42431,-0.66346 0.834,-1.36653 1.2168,-2.08889 3.41845,-6.30959 4.86328,-13.52596 6.13818,-19.89281 l 0.96,-4.79912 a 3.43689,2.9631463 0 0 0 -5.41016,-2.89885 q -7.56517,4.7461 -15.13623,9.48289 c -1.91113,1.19894 -4.09375,2.58648 -6.18408,4.08598 -0.20166,-0.84446 -0.4126,-1.69147 -0.62353,-2.52669 a 3.43916,2.9651035 0 0 0 -6.28077,-0.93625 l -3.88281,5.37839 c -2.832,3.92771 -5.33154,7.79817 -4.82226,11.97257 a 0.756,0.65179237 0 0 0 0.0132,0.15154 10.94679,9.4378759 0 0 0 0.56348,2.00975 z"
     fill="#f0f0f0"
     id="path40"
     style="stroke-width:0.999997" />
  <path
     d="m 20.729899,528.87293 315.357501,0.26495 a 1.19069,1.0265644 0 0 0 0,-2.0531 L 20.729899,526.81983 a 1.19069,1.0265644 0 0 0 0,2.0531 z"
     fill="#cacaca"
     id="path42"
     style="stroke-width:0.999997" />
  <path
     d="m 307.05366,146.17372 34.688,-25.25593 a 5.86536,5.0568742 0 0 0 0.69609,-7.11843 l -6.38441,-6.51797 a 5.86537,5.0568828 0 0 0 -8.25653,-0.60015 l -34.688,25.25593 a 5.86536,5.0568742 0 0 0 -0.6961,7.11843 l 6.38442,6.51798 a 5.86537,5.0568828 0 0 0 8.25653,0.60014 z"
     fill="#3f3d56"
     id="path44"
     style="stroke-width:0.999997" />
  <path
     d="m 339.92151,114.32483 a 3.161,2.7252853 0 0 1 -0.37511,3.83604 l -34.688,25.25593 a 3.16093,2.7252249 0 0 1 -4.44933,-0.32342 l -6.38442,-6.51793 a 3.161,2.7252853 0 0 1 0.37512,-3.83603 l 34.688,-25.25593 a 3.161,2.7252853 0 0 1 4.44934,0.32342 z"
     fill="#ffffff"
     id="path46"
     style="stroke-width:0.999997" />
  <path
     d="m 319.55738,124.14288 a -1.33329,1.1495083 0 0 0 1.05444,0.48081 l 5.45025,0.10793 a -1.3336663,1.1498327 0 1 0 0.0612,-2.29906 l -3.56552,-0.0707 3.5114,-7.98825 a -1.33372,1.149879 0 0 0 -2.49431,-0.815 l -4.17956,9.50809 a -1.33428,1.1503618 0 0 0 0.14089,1.04996 z"
     fill="#6c63ff"
     id="path48"
     style="stroke-width:0.999997;fill:#6d6dff;fill-opacity:1" />
  <path
     d="m 318.85832,126.15042 a 9.08846,7.8356995 0 0 0 -7.29959,10.23512 l -25.5864,16.9927 15.87006,4.70852 21.86426,-16.85841 a 9.13775,7.8781954 0 0 0 -4.84831,-15.07788 z"
     fill="#ffb6b6"
     id="path50"
     style="stroke-width:0.999997" />
  <path
     d="m 185.64997,134.55236 65.50929,34.72592 c 0,0 26.4126,-8.42565 21.25071,-12.32618 -5.16189,-3.90051 11.2708,-6.53746 11.2708,-6.53746 l 18.15322,-10.52954 10.534,10.55482 c 0,0 -1.91937,17.14419 -5.18517,14.17562 -3.2658,-2.96857 -8.14738,5.14079 -8.14738,5.14079 0,0 -1.44254,9.05479 -10.73916,6.77614 -9.29662,-2.27866 -34.24217,21.60609 -34.24217,21.60609 l -80.62233,-25.92432 z"
     fill="#3f3d56"
     id="path52"
     style="stroke-width:0.999997" />
  <path
     d="m 291.90348,100.08124 a -4.89054,4.2164241 0 0 1 -3.91317,-1.687402 l -11.99792,-13.79239 a -4.89186,4.2175622 0 1 1 7.82715,-5.060871 l 7.84945,9.022614 20.16029,-26.07169 a -4.8920619,4.2177363 0 0 1 8.14088,4.679162 l -23.99584,31.032346 a -4.894,4.2194073 0 0 1 -3.93468,1.876911 c -0.0454,6.7e-4 -0.0908,0.002 -0.13616,0.002 z"
     fill="#ffffff"
     id="path54"
     style="stroke-width:0.999997" />
</svg>
